<svg width="20" height="17" viewBox="0 0 20 17" fill="none" xmlns="http://www.w3.org/2000/svg">
<path d="M19.6688 8.57966C19.6688 8.24546 19.5308 7.91216 19.2889 7.67693L12.8888 1.29327C12.6181 1.01943 12.323 0.897827 12.0172 0.897827C11.3151 0.897827 10.8228 1.39224 10.8228 2.05753C10.8228 2.41302 10.9662 2.70284 11.1908 2.9243L13.3783 5.13223L16.8453 8.31027L17.2953 7.56424L13.7377 7.36271H2.21954C1.47572 7.36271 0.975098 7.85757 0.975098 8.57966C0.975098 9.30175 1.47572 9.79661 2.21954 9.79661H13.7377L17.2953 9.59508L16.8453 8.85882L13.3783 12.0271L11.1908 14.2319C10.9662 14.4436 10.8228 14.7432 10.8228 15.0987C10.8228 15.7639 11.3151 16.2584 12.0172 16.2584C12.323 16.2584 12.6181 16.1301 12.8755 15.8762L19.2889 9.48239C19.5308 9.24716 19.6688 8.91386 19.6688 8.57966Z" fill="white"/>
</svg>
